PathFileType	4	(X/Y/Z)	Patient4_TMGait_0pt4_03_left_12.trc.trc
DataRate	CameraRate	NumFrames	NumMarkers	Units	OrigDataRate	OrigDataStartFrame	OrigNumFrames
74.866310160428	74.866310160428	4	33	mm	74.866310160428	53	       141
Frame#	Time	Sacral			L.Shoulder			Chest			R.Shoulder			Neck			R.ASIS			L.ASIS			R.Thigh.Superior			R.Thigh.Lateral			R.Thigh.Inferior			R.Patella			L.Thigh.Superior			L.Thigh.Lateral			L.Thigh.Inferior			L.Patella			L.Shank.Superior			L.Shank.Lateral			L.Shank.Inferior			R.Shank.Superior			R.Shank.Lateral			R.Shank.Inferior			R.Heel			R.Midfoot.Superior			R.Midfoot.Lateral			R.Toe			L.Heel			L.Midfoot.Lateral			L.Midfoot.Superior			L.Toe			L.Elbow			L.Wrist			R.Elbow			R.Wrist			
		X1	Y1	Z1	X2	Y2	Z2	X3	Y3	Z3	X4	Y4	Z4	X5	Y5	Z5	X6	Y6	Z6	X7	Y7	Z7	X8	Y8	Z8	X9	Y9	Z9	X10	Y10	Z10	X11	Y11	Z11	X12	Y12	Z12	X13	Y13	Z13	X14	Y14	Z14	X15	Y15	Z15	X16	Y16	Z16	X17	Y17	Z17	X18	Y18	Z18	X19	Y19	Z19	X20	Y20	Z20	X21	Y21	Z21	X22	Y22	Z22	X23	Y23	Z23	X24	Y24	Z24	X25	Y25	Z25	X26	Y26	Z26	X27	Y27	Z27	X28	Y28	Z28	X29	Y29	Z29	X30	Y30	Z30	X31	Y31	Z31	X32	Y32	Z32	X33	Y33	Z33	

53	16.114571428571	790.660672940556	999.394420566807	406.821245889608	953.586625002641	1433.103573475379	209.709891206268	1056.393949704057	1375.011683031129	374.921168685666	965.608826833294	1446.369261075469	546.324051602269	931.155828183140	1497.836271013804	364.989322406325	1024.076412805749	951.550852938365	524.808677345840	1009.592152070404	968.291542104891	250.286088610575	1115.928783758549	786.175188224791	497.907937379823	1084.027763961085	666.689332206078	581.855840966225	1174.959884905029	628.494038297407	503.419934294861	1200.800423873368	518.645457925676	531.999271581774	1062.423452727106	753.435720781096	281.085051566743	975.541504211609	635.234089563229	222.678322206895	1059.784801418333	559.460252352724	287.211853459464	1059.404203636731	490.527568927473	298.654344439898	1032.763182724311	417.403379755916	291.578252428038	943.330437082527	302.340125546148	240.176771899030	992.172662699659	193.153274335428	316.521644783205	1128.626743058262	439.677872249483	543.837022529262	1011.597861291756	396.664199953267	609.944954064761	1001.752822249989	284.882041917163	566.332903412393	806.139210655435	219.164736194927	549.120404947465	974.782696671454	158.261036376815	584.570169885959	865.932964438723	155.308387237769	617.937513893097	1037.573441909318	41.277394662498	601.421975753216	862.586077252895	38.060635491580	360.043497419920	937.853145735270	34.464258455686	280.114073335612	1020.218888861698	96.380237469198	308.719103475043	1149.705042055622	46.211784395876	283.460590353732	1004.316199529187	1093.391285009442	69.800819617906	1212.609099625987	932.029637694795	74.668669525235	922.347569752674	1103.159283150114	673.241194825218	982.442187626761	848.882642078849	689.301759808670	
54	16.127928571429	789.688419372387	999.944159323836	404.935053001044	954.002536931378	1433.491932442125	208.200646416390	1055.388794784140	1375.650239272014	374.328377869322	963.144045466684	1447.275331745640	544.812474078646	930.292955948794	1498.356340960305	363.316796111530	1022.354662357945	952.389896541328	524.397346325811	1009.238194005479	968.520626865670	249.876364807512	1115.005234177751	788.271191770495	497.739594314975	1084.529365419556	669.009197334492	582.618852344211	1175.288463365529	631.116627547517	503.801934699789	1202.637468497288	522.268782216731	533.179379931439	1060.238168154507	753.018056494097	280.760477218315	972.261333154500	635.438813026338	221.942342972495	1055.804433343196	558.976192355345	286.354060185376	1054.826266054547	490.133642125226	297.687619270990	1027.907182245670	417.260996154541	290.714475807307	937.888762748812	302.412280842703	239.738623039905	986.865345213462	193.152237201497	315.983836302726	1132.440055487426	441.936915823651	545.133921517532	1016.439492381114	395.207655904752	610.461260390363	1010.862969271382	282.927703518418	567.342434048008	817.749104020661	209.275449939398	548.945072165157	988.507075565861	155.964420498968	585.990043090483	879.643360736052	148.503562297295	618.662858012870	1056.036085461246	42.265868867957	604.054324828926	857.149418799582	38.098813207864	359.973709376417	932.458206374986	34.448389231590	280.052832240608	1014.883696900660	96.390516787669	308.541182722545	1144.337488601169	46.137488697167	283.451117330555	1007.554217028372	1094.568904298282	68.045211668997	1222.008004041493	941.751779007076	74.474061493477	913.359741611042	1106.020520900673	673.339922656336	966.162447398633	850.569333486487	693.901110007901	
55	16.141285714286	788.747754137628	1000.492924602540	403.245816208517	954.457787239297	1433.754936731240	206.791372086320	1054.465981273329	1376.215752873667	373.811536004468	960.850283765486	1448.208060639136	543.364603652890	929.498726297001	1498.823704052151	361.692532640900	1020.638207680326	953.108002742404	524.182532031234	1008.849484335206	968.686739564568	249.654648354720	1113.764273172609	789.897616057130	497.842780087961	1084.355472989980	670.822412677802	583.467332660647	1174.890094488990	633.102918735326	504.327384191426	1203.525706338131	525.449059684609	534.428887788731	1057.919673351023	752.595284378291	280.647484449413	968.841661135620	635.680465876524	221.301872195733	1051.603200218650	558.507881257484	285.617975934679	1049.984187771337	489.764911879077	296.809524973334	1022.850869955429	417.161033653869	289.912781606925	932.307554547800	302.498529885987	239.371847297493	981.488646614973	193.175719716264	315.488255369390	1135.664760312922	443.729099263951	546.599184769530	1021.048219940020	392.891916598702	611.230573401180	1020.218844620342	280.206742002207	568.677471442573	830.186863767444	197.952785721481	549.136809172498	1002.960379402953	152.967519933797	587.857948448548	894.278476489551	140.768582566280	619.923809694400	1075.523128502575	43.085078750265	607.489078601247	851.714901787239	38.128906651257	359.912614715587	927.057728143381	34.431226771554	280.000712888380	1009.528698675269	96.407489704285	308.379313102158	1138.956672319711	46.095808657771	283.441926806542	1010.493190970937	1095.491019649430	66.633522051186	1230.584341958773	951.231035675820	74.517402611908	904.658095503639	1109.074822133831	673.538933785631	950.894861178546	852.834739922575	698.084215859075	
56	16.154642857143	787.830879006761	1001.021694158527	401.759569251927	954.928366228600	1433.871788580723	205.497162349479	1053.623105854040	1376.687805334655	373.376822514728	958.739590194988	1449.136447548121	542.001472131756	928.772748663677	1499.217944632572	360.136321230354	1018.943809470562	953.687639816352	524.158325365205	1008.478607205727	968.815239961766	249.592086421243	1112.206648198267	791.017630022245	498.196752740195	1083.464038109848	672.077499454943	584.355811867325	1173.750741709766	634.409294207941	504.983933142269	1203.452767712427	528.132108549768	535.674958061115	1055.502739475261	752.156213812146	280.708734581717	965.325353522641	635.941808561809	220.762171234196	1047.234905963775	558.049608962550	285.013415302777	1044.940759038491	489.414949870467	296.044197282796	1017.654322168858	417.089052211027	289.195407401252	926.644064404503	302.592131985558	239.078173130386	976.064867967590	193.211551251351	315.048661767563	1138.281926219874	445.048930814450	548.161790475275	1025.501224493679	389.804868812377	612.295867957363	1029.775693435203	276.872793669511	570.326573249268	843.455627830961	185.575441320918	549.863118995395	1018.037262436351	149.466223415727	590.127412758436	909.801700841092	132.399546633230	621.771081670749	1095.771593067012	43.841428586264	611.514620322343	846.288001542312	38.148815220266	359.861520156514	921.654825315730	34.412277630048	279.958189045517	1004.155456439319	96.426998950650	308.239106408300	1133.566123783147	46.081690621251	283.433162708358	1013.167854315837	1096.132074546547	65.573960675715	1238.344964692709	960.328865786631	74.767459613062	896.251521154845	1112.257040360196	673.802307351520	936.676374610265	855.528232173924	701.835824442178	
